<svg width="1920" height="823" viewBox="0 0 1920 823" fill="none" xmlns="http://www.w3.org/2000/svg">
<g clip-path="url(#clip0_5024_49)">
<path d="M0.238281 777.969L8.59964 92.501L1480.8 110.457L1476.46 466.416C1370.25 419.657 1036.14 566.248 882.923 586.983C799.129 591.811 518.945 762.796 388.593 797.601C264.898 834.634 78.1503 799.944 0.238281 777.969Z" fill="url(#paint0_linear_5024_49)" fill-opacity="0.3"/>
<path d="M0.666016 719.004V0L1920 1.19436V607.928C1781.45 559.199 1348.7 593.198 1149.64 616.289C1040.71 622.022 675.08 699.098 505.88 736.919C345.358 777.05 102.186 741.697 0.666016 719.004Z" fill="url(#paint1_linear_5024_49)"/>
</g>
<defs>
<linearGradient id="paint0_linear_5024_49" x1="1454.36" y1="608.797" x2="305.182" y2="345.011" gradientUnits="userSpaceOnUse">
<stop stop-color="#331FC9"/>
<stop offset="1" stop-color="#5541D3"/>
</linearGradient>
<linearGradient id="paint1_linear_5024_49" x1="708" y1="412.5" x2="94" y2="27.4999" gradientUnits="userSpaceOnUse">
<stop stop-color="#4526C0"/>
<stop offset="0.458217" stop-color="#572ADF"/>
<stop offset="1" stop-color="#7B4DDC"/>
</linearGradient>
<clipPath id="clip0_5024_49">
<rect width="1920" height="823" fill="white"/>
</clipPath>
</defs>
</svg>
