<svg width="475" height="138" viewBox="0 0 475 138" fill="none" xmlns="http://www.w3.org/2000/svg">
<path d="M22.2168 73.7178C18.5482 73.7178 15.21 73.3076 12.2021 72.4873C9.19434 71.667 6.2321 70.2428 3.31543 68.2148V56.1836H11.04L12.0996 63.2588C13.125 64.1247 14.5378 64.8311 16.3379 65.3779C18.138 65.902 20.0977 66.1641 22.2168 66.1641C24.0169 66.1641 25.5322 65.9134 26.7627 65.4121C28.016 64.9108 28.9616 64.2044 29.5996 63.293C30.2604 62.3587 30.5908 61.265 30.5908 60.0117C30.5908 58.8268 30.2946 57.7786 29.7021 56.8672C29.1325 55.9329 28.1755 55.0898 26.8311 54.3379C25.5094 53.5632 23.7093 52.8226 21.4307 52.1162C17.4886 50.9541 14.2188 49.6895 11.6211 48.3223C9.04622 46.9323 7.10938 45.2803 5.81055 43.3662C4.53451 41.4294 3.89648 39.1051 3.89648 36.3936C3.89648 33.7048 4.63704 31.335 6.11816 29.2842C7.62207 27.2106 9.69564 25.5814 12.3389 24.3965C14.9821 23.2116 18.0355 22.5964 21.499 22.5508C25.3271 22.5052 28.7109 22.9609 31.6504 23.918C34.6126 24.875 37.1647 26.208 39.3066 27.917V39.1279H31.8213L30.5225 32.292C29.6566 31.7451 28.4831 31.2666 27.002 30.8564C25.5436 30.4463 23.8802 30.2412 22.0117 30.2412C20.4167 30.2412 19.0039 30.4805 17.7734 30.959C16.5658 31.4375 15.6087 32.1325 14.9023 33.0439C14.196 33.9554 13.8428 35.0605 13.8428 36.3594C13.8428 37.4759 14.1504 38.4557 14.7656 39.2988C15.3809 40.1191 16.4062 40.9053 17.8418 41.6572C19.3001 42.3864 21.3053 43.1725 23.8574 44.0156C29.349 45.5423 33.5075 47.5589 36.333 50.0654C39.1813 52.5719 40.6055 55.8646 40.6055 59.9434C40.6055 62.7689 39.8421 65.2184 38.3154 67.292C36.7887 69.3428 34.6468 70.9264 31.8896 72.043C29.1325 73.1595 25.9082 73.7178 22.2168 73.7178ZM77.0205 73V67.0186L82.3525 65.9932V30.9248H73.2949L72.748 36.8721H65.1943V23.2344H109.594V36.8721H102.006L101.459 30.9248H92.333V65.9932L97.6992 67.0186V73H77.0205ZM158.689 73.7178C154.747 73.7178 151.272 73.0342 148.265 71.667C145.28 70.2998 142.955 68.3174 141.292 65.7197C139.629 63.1221 138.797 59.9661 138.797 56.252V30.2754L133.499 29.25V23.2344H154.109V29.25L148.777 30.2754V56.252C148.777 58.4395 149.176 60.2624 149.974 61.7207C150.771 63.179 151.91 64.2728 153.392 65.002C154.873 65.7083 156.639 66.0615 158.689 66.0615C160.786 66.0615 162.575 65.7083 164.056 65.002C165.56 64.2728 166.71 63.179 167.508 61.7207C168.305 60.2624 168.704 58.4395 168.704 56.252V30.2754L163.406 29.25V23.2344H184.017V29.25L178.685 30.2754V56.252C178.685 59.9661 177.841 63.1335 176.155 65.7539C174.492 68.3516 172.156 70.334 169.148 71.7012C166.163 73.0456 162.677 73.7178 158.689 73.7178ZM208.264 73V67.0186L213.63 65.8906V30.4121L208.264 29.25V23.2344H213.63H230.104C234.548 23.2344 238.467 24.2826 241.862 26.3789C245.257 28.4525 247.901 31.335 249.792 35.0264C251.706 38.695 252.663 42.9105 252.663 47.6729V48.5957C252.663 53.3125 251.717 57.5166 249.826 61.208C247.958 64.8766 245.337 67.7591 241.965 69.8555C238.592 71.9518 234.685 73 230.241 73H208.264ZM223.61 65.3779H229.729C232.486 65.3779 234.821 64.6602 236.735 63.2246C238.649 61.7663 240.108 59.7725 241.11 57.2432C242.136 54.7139 242.648 51.8314 242.648 48.5957V47.6387C242.648 44.3574 242.136 41.4635 241.11 38.957C240.108 36.4277 238.649 34.4567 236.735 33.0439C234.821 31.6084 232.486 30.8906 229.729 30.8906H223.61V65.3779ZM290.104 73V67.0186L295.436 65.9932V55.9443L280.67 29.9336L275.885 29.25V23.2344H295.743V29.25L291.676 29.8311L299.947 45.7246L300.699 47.3311L300.904 47.2969L301.656 45.793L310.851 29.8311L305.382 29.25V23.2344H324.864V29.25L319.942 29.9336L305.382 55.1582V65.9932L310.714 67.0186V73H290.104Z" fill="white"/>
<path d="M1.55452 123V118.142L5.85721 117.309V88.3009L1.55452 87.4681V82.5825H5.85721H20.7917C23.8822 82.5825 26.5471 83.1284 28.7864 84.2203C31.0256 85.2936 32.7467 86.8019 33.9496 88.745C35.1525 90.6697 35.754 92.9182 35.754 95.4905C35.754 98.0629 35.1525 100.321 33.9496 102.264C32.7467 104.188 31.0256 105.687 28.7864 106.761C26.5471 107.816 23.8822 108.343 20.7917 108.343H13.9629V117.309L18.2934 118.142V123H1.55452ZM13.9629 102.097H20.7917C23.0495 102.097 24.752 101.487 25.8994 100.265C27.0653 99.0252 27.6483 97.4522 27.6483 95.5461C27.6483 93.6029 27.0653 92.0021 25.8994 90.7437C24.752 89.4668 23.0495 88.8283 20.7917 88.8283H13.9629V102.097ZM56.8788 123.583C54.1584 123.583 51.6785 123.074 49.4393 122.056C47.2 121.038 45.2661 119.613 43.6376 117.781C42.0276 115.931 40.7877 113.765 39.9179 111.286C39.0481 108.787 38.6132 106.058 38.6132 103.097V102.486C38.6132 99.5434 39.0481 96.8322 39.9179 94.3524C40.7877 91.8541 42.0276 89.6796 43.6376 87.829C45.2476 85.9784 47.1723 84.5441 49.4115 83.5263C51.6508 82.5084 54.1306 81.9995 56.851 81.9995C59.5899 81.9995 62.0883 82.5084 64.346 83.5263C66.6038 84.5441 68.5469 85.9784 70.1755 87.829C71.804 89.6796 73.0532 91.8541 73.923 94.3524C74.8113 96.8322 75.2554 99.5434 75.2554 102.486V103.097C75.2554 106.058 74.8113 108.787 73.923 111.286C73.0532 113.765 71.804 115.931 70.1755 117.781C68.5469 119.613 66.6038 121.038 64.346 122.056C62.1068 123.074 59.6177 123.583 56.8788 123.583ZM56.8788 117.282C59.1736 117.282 61.0797 116.689 62.5972 115.505C64.1147 114.321 65.2528 112.664 66.0116 110.536C66.7889 108.408 67.1775 105.928 67.1775 103.097V102.43C67.1775 99.6359 66.7889 97.1839 66.0116 95.0742C65.2343 92.9459 64.0777 91.2896 62.5417 90.1052C61.0242 88.9208 59.1273 88.3286 56.851 88.3286C54.5933 88.3286 52.7149 88.9208 51.2159 90.1052C49.7169 91.2711 48.588 92.9089 47.8293 95.0186C47.089 97.1283 46.7189 99.5989 46.7189 102.43V103.097C46.7189 105.928 47.089 108.408 47.8293 110.536C48.588 112.664 49.7169 114.321 51.2159 115.505C52.7334 116.689 54.621 117.282 56.8788 117.282ZM78.5033 123V118.142L82.806 117.309V88.3009L78.5033 87.4681V82.5825H95.2144V87.4681L90.9117 88.3009V117.309L95.2144 118.142V123H78.5033ZM98.3234 123V118.142L102.626 117.309V88.3009L98.3234 87.4681V82.5825H102.626H110.843L128.442 110.619L128.609 110.592V88.3009L123.446 87.4681V82.5825H135.854H140.184V87.4681L135.854 88.3009V123H128.026L110.038 95.2407L109.871 95.2685V117.309L115.062 118.142V123H98.3234ZM152.149 123V118.142L156.479 117.309V88.8283H149.123L148.679 93.6584H142.544V82.5825H178.603V93.6584H172.441L171.997 88.8283H164.585V117.309L168.943 118.142V123H152.149ZM195.37 123V118.142L199.673 117.309V88.3009L195.37 87.4681V82.5825H199.673H207.778H212.664V87.4681L207.778 88.3009V116.782H219.187L219.576 110.869H225.766V123H195.37ZM228.681 123V118.142L232.984 117.309V88.3009L228.681 87.4681V82.5825H245.392V87.4681L241.089 88.3009V117.309L245.392 118.142V123H228.681ZM264.491 123L251.499 87.9123L247.89 87.4681V82.5825H263.963V87.4681L260.327 88.0233L268.266 111.869L268.876 114.089H269.043L269.626 111.924L277.565 88.0233L273.318 87.4681V82.5825H288.641V87.4681L284.977 87.9123L272.791 123H264.491ZM291.139 123V118.142L295.442 117.309V88.3009L291.139 87.4681V82.5825H322.507V93.4919H316.289L315.928 88.8283H303.548V98.9882H317.233V105.234H303.548V116.782H316.595L316.956 111.952H323.118V123H291.139Z" fill="white"/>
<path d="M364.524 61.1405L364.047 88.4901C364.038 89.0074 364.288 89.4887 364.733 89.7526C375.31 96.0247 404.354 104.398 442.414 91.0525C442.996 90.8485 443.395 90.299 443.406 89.6825L443.919 60.2993" stroke="white" stroke-width="6.67582"/>
<path d="M376.088 112.653V65.7595C376.088 65.6541 376.195 65.5823 376.292 65.6222L392.314 72.1767C392.37 72.1995 392.407 72.2538 392.407 72.314V112.653C392.407 112.785 392.247 112.851 392.153 112.758L384.352 104.957C384.294 104.899 384.2 104.899 384.142 104.957L376.341 112.758C376.248 112.851 376.088 112.785 376.088 112.653Z" fill="white" stroke="white" stroke-width="6.67582"/>
<path d="M405.2 75.6937L342.53 49.9291C341.278 49.4146 341.313 47.6301 342.583 47.1642L405.253 24.1852C405.579 24.0656 405.937 24.0643 406.265 24.1817L470.328 47.1609C471.612 47.6214 471.646 49.4247 470.381 49.9336L406.318 75.698C405.959 75.8423 405.558 75.8408 405.2 75.6937Z" stroke="white" stroke-width="6.67582"/>
</svg>
